<svg xmlns="http://www.w3.org/2000/svg" viewBox="0 0 1200 630" width="1200" height="630">
  <defs>
    <linearGradient id="bg" x1="0" y1="0" x2="1" y2="1">
      <stop offset="0" stop-color="#f3f8f1"/>
      <stop offset="1" stop-color="#fbf8f1"/>
    </linearGradient>
    <linearGradient id="leafGrad" x1="0" y1="0" x2="1" y2="1">
      <stop offset="0" stop-color="#7ba869"/>
      <stop offset="1" stop-color="#467138"/>
    </linearGradient>
  </defs>

  <rect width="1200" height="630" fill="url(#bg)"/>

  <!-- Decorative leaves -->
  <g opacity="0.08" fill="#467138">
    <path d="M 100 100 q 80 -60 160 0 q -80 60 -160 0 z"/>
    <path d="M 1000 500 q 80 -60 160 0 q -80 60 -160 0 z"/>
    <circle cx="1100" cy="100" r="50"/>
    <circle cx="80" cy="550" r="35"/>
  </g>

  <!-- Main mark -->
  <g transform="translate(120, 180)">
    <rect width="100" height="100" rx="22" fill="url(#leafGrad)"/>
    <path d="M50 22c-15 0-26 11-26 26 0 18 26 36 26 36s26-18 26-36c0-15-11-26-26-26zm0 13c6.7 0 6.7 10 0 20-6.7-10-6.7-20 0-20z" fill="#a4c697"/>
    <circle cx="50" cy="44" r="5" fill="#fbf8f1"/>
  </g>

  <!-- Headline -->
  <text x="120" y="370" font-family="Plus Jakarta Sans, system-ui, sans-serif" font-size="72" font-weight="800" fill="#283c22">
    The Vegan Pet Directory
  </text>
  <text x="120" y="430" font-family="Plus Jakarta Sans, system-ui, sans-serif" font-size="36" font-weight="600" fill="#467138">
    Asia-Pacific edition
  </text>
  <text x="120" y="490" font-family="Inter, system-ui, sans-serif" font-size="24" fill="#38592e" opacity="0.85">
    15+ vetted plant-based pet brands · TW · SG · MY · HK
  </text>

  <!-- Footer -->
  <text x="120" y="580" font-family="Inter, system-ui, sans-serif" font-size="20" fill="#467138">
    directory.virida.pet
  </text>
  <text x="1080" y="580" text-anchor="end" font-family="Inter, system-ui, sans-serif" font-size="20" fill="#467138">
    Curated by VIRIDA 🌿
  </text>
</svg>
